<svg fill="none" height="24" viewBox="0 0 24 24" width="24" xmlns="http://www.w3.org/2000/svg"><g stroke="#F0F757" stroke-linejoin="round" stroke-width="2"><path d="m8.40508 4.83002-3.85564-1.10161c-1.27763-.36504-2.54944.59429-2.54944 1.92305v11.83994c0 .893.59196 1.6777 1.45056 1.923l4.95452 1.4156c.38755.1108.79952.1018 1.1819-.0257l4.82602-1.6086c.3824-.1275.7944-.1365 1.1819-.0257l3.8557 1.1016c1.2776.365 2.5494-.5943 2.5494-1.9231v-11.8399c0-.89296-.592-1.67773-1.4506-1.92305l-4.9545-1.41557c-.3875-.11073-.7995-.10178-1.1819.02568l-4.82602 1.60868c-.38238.12746-.79435.13641-1.1819.02568z" stroke-linecap="round"/><path d="m9 5v16"/><path d="m15 3v16"/></g></svg>
